<svg width="25" height="19" viewBox="0 0 25 19" fill="none" xmlns="http://www.w3.org/2000/svg">
<path d="M24.648 2.32567C24.573 2.23327 24.4785 2.15861 24.3713 2.10708C24.264 2.05554 24.1467 2.0284 24.0277 2.02762H7.25605L7.77967 3.63873H22.9724L20.8216 13.3054H8.73828L5.05689 1.64901C5.01707 1.52532 4.94792 1.4131 4.85534 1.32193C4.76276 1.23075 4.6495 1.16332 4.52522 1.1254L1.22244 0.110396C1.12089 0.0791886 1.01418 0.0682899 0.908413 0.0783218C0.802645 0.0883538 0.699889 0.11912 0.606011 0.168864C0.416417 0.269326 0.274497 0.44099 0.211471 0.64609C0.148445 0.851191 0.169477 1.07293 0.269939 1.26252C0.370401 1.45212 0.542065 1.59404 0.747166 1.65706L3.63911 2.54317L7.33661 14.2237L6.0155 15.3032L5.91078 15.4079C5.58399 15.7845 5.39877 16.2632 5.387 16.7617C5.37524 17.2602 5.53768 17.7471 5.84633 18.1387C6.06589 18.4057 6.3449 18.6177 6.66102 18.7575C6.97715 18.8974 7.32162 18.9614 7.66689 18.9443H21.1116C21.3253 18.9443 21.5302 18.8594 21.6812 18.7083C21.8323 18.5573 21.9172 18.3524 21.9172 18.1387C21.9172 17.9251 21.8323 17.7202 21.6812 17.5691C21.5302 17.418 21.3253 17.3332 21.1116 17.3332H7.538C7.44524 17.33 7.35486 17.303 7.2756 17.2547C7.19633 17.2064 7.13086 17.1385 7.08551 17.0575C7.04016 16.9765 7.01646 16.8852 7.0167 16.7924C7.01694 16.6995 7.04112 16.6084 7.08689 16.5276L9.02828 14.9165H21.4661C21.6523 14.9211 21.8343 14.8609 21.9812 14.7464C22.1281 14.6318 22.2307 14.4699 22.2716 14.2882L24.8252 3.0104C24.8497 2.8903 24.8465 2.7662 24.8158 2.64754C24.7851 2.52889 24.7277 2.4188 24.648 2.32567Z" fill="#272727"/>
</svg>
