<svg width="27" height="23" viewBox="0 0 27 23" fill="none" xmlns="http://www.w3.org/2000/svg">
<path d="M25.9698 5.66386C25.8236 5.09145 25.5978 4.54236 25.2992 4.0326C25.0123 3.50232 24.6455 3.01937 24.2117 2.60073C23.5827 1.97385 22.8378 1.47522 22.0186 1.1326C20.3695 0.455798 18.5202 0.455798 16.8711 1.1326C16.0967 1.46037 15.3853 1.92036 14.7686 2.49198L14.6779 2.60073L13.4998 3.77885L12.3217 2.60073L12.2311 2.49198C11.6144 1.92036 10.9029 1.46037 10.1286 1.1326C8.47947 0.455798 6.63016 0.455798 4.98106 1.1326C4.16179 1.47522 3.41693 1.97385 2.78794 2.60073C1.92766 3.4378 1.31868 4.49881 1.02982 5.66386C0.876143 6.25549 0.802983 6.86516 0.812316 7.47636C0.812316 8.05092 0.884816 8.62367 1.02982 9.1801C1.18176 9.74206 1.40084 10.2837 1.68232 10.7932C1.9863 11.3171 2.35805 11.7985 2.78794 12.2251L13.4998 22.937L24.2117 12.2251C24.6412 11.8028 25.0092 11.3189 25.2992 10.7932C25.8879 9.78748 26.1947 8.6417 26.1873 7.47636C26.1967 6.86515 26.1236 6.25548 25.9698 5.66386ZM24.1573 8.61823C23.9402 9.44639 23.5089 10.2028 22.9067 10.8114L13.4636 20.2364L4.02044 10.8114C3.71272 10.5014 3.44482 10.1544 3.22294 9.77823C3.01415 9.40608 2.8499 9.01065 2.73357 8.6001C2.64069 8.18961 2.59208 7.77034 2.58857 7.34948C2.59102 6.91659 2.63963 6.48519 2.73357 6.0626C2.84649 5.65088 3.01091 5.25504 3.22294 4.88448C3.44044 4.50385 3.70869 4.15948 4.02044 3.85135C4.48606 3.39197 5.03308 3.02319 5.63356 2.76385C6.84361 2.27978 8.19352 2.27978 9.40356 2.76385C10.0017 3.01217 10.5418 3.37648 10.9986 3.83323L13.4636 6.31635L15.9286 3.83323C16.385 3.37567 16.9269 3.01232 17.5236 2.76385C18.7336 2.27978 20.0835 2.27978 21.2936 2.76385C21.8935 3.02304 22.4409 3.39279 22.9067 3.85135C23.2221 4.15042 23.4867 4.49842 23.6861 4.88448C24.1059 5.62482 24.3246 6.46215 24.3204 7.31323C24.3451 7.75117 24.3085 8.19041 24.2117 8.61823H24.1573Z" fill="black"/>
</svg>
